<mxfile modified="2020-10-05T23:02:08.523Z" host="app.diagrams.net" agent="5.0 (Windows NT 10.0; Win64; x64) AppleWebKit/537.36 (KHTML, like Gecko) Chrome/85.0.4183.102 Safari/537.36" etag="s4Caa-3_YnnqUsZbNQ2Y" version="13.7.7" type="github">
  <diagram id="Ht1M8jgEwFfnCIfOTk4-" name="Page-1">
    <mxGraphModel dx="1302" dy="529" grid="1" gridSize="10" guides="1" tooltips="1" connect="1" arrows="1" fold="1" page="1" pageScale="1" pageWidth="1169" pageHeight="827" math="0" shadow="0">
      <root>
        <mxCell id="0" />
        <mxCell id="1" parent="0" />
        <mxCell id="yS4Kekm6pDtTMpnrxj6k-2" value="Mongo Db Cloud" style="outlineConnect=0;fontColor=#232F3E;gradientColor=#4D72F3;gradientDirection=north;fillColor=#3334B9;strokeColor=#ffffff;dashed=0;verticalLabelPosition=bottom;verticalAlign=top;align=center;html=1;fontSize=12;fontStyle=0;aspect=fixed;shape=mxgraph.aws4.resourceIcon;resIcon=mxgraph.aws4.documentdb_with_mongodb_compatibility;" vertex="1" parent="1">
          <mxGeometry x="700" y="542" width="80" height="80" as="geometry" />
        </mxCell>
        <mxCell id="yS4Kekm6pDtTMpnrxj6k-5" value="REPOSITORIO: ImÃ¡genes, videos, documentos." style="ellipse;shape=cloud;whiteSpace=wrap;html=1;dashed=0;fontColor=#232F3E;fontStyle=0;verticalAlign=top;strokeColor=#ffffff;fillColor=#3334B9;gradientColor=#4D72F3;gradientDirection=north;" vertex="1" parent="1">
          <mxGeometry x="520" y="240" width="160" height="120" as="geometry" />
        </mxCell>
        <mxCell id="yS4Kekm6pDtTMpnrxj6k-16" style="edgeStyle=orthogonalEdgeStyle;rounded=0;orthogonalLoop=1;jettySize=auto;html=1;" edge="1" parent="1" source="yS4Kekm6pDtTMpnrxj6k-9">
          <mxGeometry relative="1" as="geometry">
            <mxPoint x="320" y="322" as="targetPoint" />
          </mxGeometry>
        </mxCell>
        <mxCell id="yS4Kekm6pDtTMpnrxj6k-9" value="Api de Seguridad&lt;br&gt;" style="outlineConnect=0;fontColor=#232F3E;gradientColor=#F54749;gradientDirection=north;fillColor=#C7131F;strokeColor=#ffffff;dashed=0;verticalLabelPosition=bottom;verticalAlign=top;align=center;html=1;fontSize=12;fontStyle=0;aspect=fixed;shape=mxgraph.aws4.resourceIcon;resIcon=mxgraph.aws4.api_gateway;" vertex="1" parent="1">
          <mxGeometry x="198" y="452" width="62" height="62" as="geometry" />
        </mxCell>
        <mxCell id="yS4Kekm6pDtTMpnrxj6k-11" style="edgeStyle=orthogonalEdgeStyle;rounded=0;orthogonalLoop=1;jettySize=auto;html=1;" edge="1" parent="1" source="yS4Kekm6pDtTMpnrxj6k-10" target="yS4Kekm6pDtTMpnrxj6k-9">
          <mxGeometry relative="1" as="geometry" />
        </mxCell>
        <mxCell id="yS4Kekm6pDtTMpnrxj6k-10" value="Acceso a Web - Front End&amp;nbsp;" style="outlineConnect=0;fontColor=#232F3E;gradientColor=#F54749;gradientDirection=north;fillColor=#C7131F;strokeColor=#ffffff;dashed=0;verticalLabelPosition=bottom;verticalAlign=top;align=center;html=1;fontSize=12;fontStyle=0;aspect=fixed;shape=mxgraph.aws4.resourceIcon;resIcon=mxgraph.aws4.mobile;" vertex="1" parent="1">
          <mxGeometry x="80" y="270" width="78" height="78" as="geometry" />
        </mxCell>
        <mxCell id="yS4Kekm6pDtTMpnrxj6k-20" style="edgeStyle=orthogonalEdgeStyle;rounded=0;orthogonalLoop=1;jettySize=auto;html=1;" edge="1" parent="1" source="yS4Kekm6pDtTMpnrxj6k-12" target="yS4Kekm6pDtTMpnrxj6k-13">
          <mxGeometry relative="1" as="geometry" />
        </mxCell>
        <mxCell id="yS4Kekm6pDtTMpnrxj6k-12" value="EndPoint Seguridad" style="outlineConnect=0;fontColor=#232F3E;gradientColor=none;fillColor=#C7131F;strokeColor=none;dashed=0;verticalLabelPosition=bottom;verticalAlign=top;align=center;html=1;fontSize=12;fontStyle=0;aspect=fixed;shape=mxgraph.aws4.endpoint;" vertex="1" parent="1">
          <mxGeometry x="290" y="252" width="70" height="70" as="geometry" />
        </mxCell>
        <mxCell id="yS4Kekm6pDtTMpnrxj6k-21" style="edgeStyle=orthogonalEdgeStyle;rounded=0;orthogonalLoop=1;jettySize=auto;html=1;" edge="1" parent="1" source="yS4Kekm6pDtTMpnrxj6k-13" target="yS4Kekm6pDtTMpnrxj6k-14">
          <mxGeometry relative="1" as="geometry">
            <Array as="points">
              <mxPoint x="459" y="472" />
              <mxPoint x="459" y="472" />
            </Array>
          </mxGeometry>
        </mxCell>
        <mxCell id="yS4Kekm6pDtTMpnrxj6k-13" value="Api de Negocio" style="outlineConnect=0;fontColor=#232F3E;gradientColor=#F54749;gradientDirection=north;fillColor=#C7131F;strokeColor=#ffffff;dashed=0;verticalLabelPosition=bottom;verticalAlign=top;align=center;html=1;fontSize=12;fontStyle=0;aspect=fixed;shape=mxgraph.aws4.resourceIcon;resIcon=mxgraph.aws4.api_gateway;" vertex="1" parent="1">
          <mxGeometry x="420" y="360" width="78" height="78" as="geometry" />
        </mxCell>
        <mxCell id="yS4Kekm6pDtTMpnrxj6k-22" style="edgeStyle=orthogonalEdgeStyle;rounded=0;orthogonalLoop=1;jettySize=auto;html=1;" edge="1" parent="1" source="yS4Kekm6pDtTMpnrxj6k-14" target="yS4Kekm6pDtTMpnrxj6k-2">
          <mxGeometry relative="1" as="geometry">
            <Array as="points">
              <mxPoint x="459" y="622" />
            </Array>
          </mxGeometry>
        </mxCell>
        <mxCell id="yS4Kekm6pDtTMpnrxj6k-28" style="edgeStyle=orthogonalEdgeStyle;rounded=0;orthogonalLoop=1;jettySize=auto;html=1;" edge="1" parent="1" source="yS4Kekm6pDtTMpnrxj6k-14">
          <mxGeometry relative="1" as="geometry">
            <mxPoint x="590" y="352" as="targetPoint" />
            <Array as="points">
              <mxPoint x="590" y="542" />
            </Array>
          </mxGeometry>
        </mxCell>
        <mxCell id="yS4Kekm6pDtTMpnrxj6k-32" style="edgeStyle=orthogonalEdgeStyle;rounded=0;orthogonalLoop=1;jettySize=auto;html=1;" edge="1" parent="1" source="yS4Kekm6pDtTMpnrxj6k-14">
          <mxGeometry relative="1" as="geometry">
            <mxPoint x="370" y="702" as="targetPoint" />
          </mxGeometry>
        </mxCell>
        <mxCell id="yS4Kekm6pDtTMpnrxj6k-14" value="End Point de Negocio" style="outlineConnect=0;fontColor=#232F3E;gradientColor=none;fillColor=#C7131F;strokeColor=none;dashed=0;verticalLabelPosition=bottom;verticalAlign=top;align=center;html=1;fontSize=12;fontStyle=0;aspect=fixed;shape=mxgraph.aws4.endpoint;" vertex="1" parent="1">
          <mxGeometry x="420" y="502" width="80" height="80" as="geometry" />
        </mxCell>
        <mxCell id="yS4Kekm6pDtTMpnrxj6k-15" value="Servidor de correos Web" style="outlineConnect=0;fontColor=#232F3E;gradientColor=#F54749;gradientDirection=north;fillColor=#C7131F;strokeColor=#ffffff;dashed=0;verticalLabelPosition=bottom;verticalAlign=top;align=center;html=1;fontSize=12;fontStyle=0;aspect=fixed;shape=mxgraph.aws4.resourceIcon;resIcon=mxgraph.aws4.workmail;" vertex="1" parent="1">
          <mxGeometry x="950" y="711" width="78" height="78" as="geometry" />
        </mxCell>
        <mxCell id="yS4Kekm6pDtTMpnrxj6k-33" style="edgeStyle=orthogonalEdgeStyle;rounded=0;orthogonalLoop=1;jettySize=auto;html=1;" edge="1" parent="1" source="yS4Kekm6pDtTMpnrxj6k-30" target="yS4Kekm6pDtTMpnrxj6k-31">
          <mxGeometry relative="1" as="geometry" />
        </mxCell>
        <mxCell id="yS4Kekm6pDtTMpnrxj6k-30" value="Api de correos" style="outlineConnect=0;fontColor=#232F3E;gradientColor=#F54749;gradientDirection=north;fillColor=#C7131F;strokeColor=#ffffff;dashed=0;verticalLabelPosition=bottom;verticalAlign=top;align=center;html=1;fontSize=12;fontStyle=0;aspect=fixed;shape=mxgraph.aws4.resourceIcon;resIcon=mxgraph.aws4.api_gateway;" vertex="1" parent="1">
          <mxGeometry x="350" y="712" width="78" height="78" as="geometry" />
        </mxCell>
        <mxCell id="yS4Kekm6pDtTMpnrxj6k-34" style="edgeStyle=orthogonalEdgeStyle;rounded=0;orthogonalLoop=1;jettySize=auto;html=1;" edge="1" parent="1" source="yS4Kekm6pDtTMpnrxj6k-31" target="yS4Kekm6pDtTMpnrxj6k-15">
          <mxGeometry relative="1" as="geometry">
            <Array as="points">
              <mxPoint x="870" y="750" />
              <mxPoint x="870" y="750" />
            </Array>
          </mxGeometry>
        </mxCell>
        <mxCell id="yS4Kekm6pDtTMpnrxj6k-31" value="End Point Correos" style="outlineConnect=0;fontColor=#232F3E;gradientColor=none;fillColor=#C7131F;strokeColor=none;dashed=0;verticalLabelPosition=bottom;verticalAlign=top;align=center;html=1;fontSize=12;fontStyle=0;aspect=fixed;shape=mxgraph.aws4.endpoint;" vertex="1" parent="1">
          <mxGeometry x="664.5" y="711" width="80" height="80" as="geometry" />
        </mxCell>
        <mxCell id="yS4Kekm6pDtTMpnrxj6k-35" value="Diagrama de Arquitectura - YesMon - v1.0" style="whiteSpace=wrap;html=1;" vertex="1" parent="1">
          <mxGeometry x="370" y="80" width="460" height="60" as="geometry" />
        </mxCell>
      </root>
    </mxGraphModel>
  </diagram>
</mxfile>
